<svg enable-background="new 0 0 1024 164" viewBox="0 0 1024 164" xmlns="http://www.w3.org/2000/svg"><g fill="#231f20"><path d="m37.64 126.69h-37.26v-2.7c12.24-1.44 11.88-.54 12.24-13.5v-86.41c-.54-12.96 0-12.24-12.24-13.5v-2.7h69.66v24.84h-2.7c-.72-14.94-5.94-22.14-19.8-22.14h-24.12v52.2h22.5c7.74 0 10.98-2.88 10.98-10.26v-2.7h2.7v27.72h-2.7v-12.06h-25.92c-6.84 0-7.56.54-7.56 9.54v35.46c.72 13.32-.54 12.6 14.22 13.5z"/><path d="m134.66 126.69h-21.06v-3.42c0-2.52.18-6.48.36-12.06h-.54c-3.6 10.26-11.7 16.92-22.5 16.92-13.86 0-21.96-8.82-21.96-22.32 0-20.52 21.06-27.36 36.36-27.36h8.28v-4.68c0-18.9-3.96-28.62-16.74-28.62-10.62 0-17.64 8.64-18.9 21.42h-2.7v-17.47c4.5-3.6 14.22-6.66 22.14-6.66 21.42 0 26.46 12.42 26.46 34.92v31.86c.36 14.04-.18 13.68 10.8 14.76zm-21.06-45.54h-6.12c-7.56 0-14.04 1.8-19.62 5.22-5.4 3.42-8.1 9.72-8.1 18.54 0 10.8 5.22 17.64 14.58 17.64 6.66 0 11.52-3.06 14.58-9 3.06-6.12 4.68-12.96 4.68-20.52z"/><path d="m198.37 43.88v2.7c-4.86 0-6.66 2.88-9.72 13.68l-19.98 66.42h-8.64l-20.16-68.95c-2.34-8.1-3.78-10.98-10.08-11.16v-2.7h17.64l20.16 74.52 17.64-58.14c.9-3.24 1.44-5.76 1.44-7.38 0-4.32-2.88-5.76-10.26-6.3v-2.7h21.96z"/><path d="m232.75 42.44c20.34 0 32.04 15.66 32.04 43.02 0 27.18-12.06 42.66-32.76 42.66s-32.23-15.3-32.23-42.66c0-27.17 12.24-43.02 32.95-43.02zm-17.46 71.11c3.06 7.92 8.82 11.88 17.1 11.88s14.04-3.96 17.1-12.06 4.68-17.28 4.68-27.9-1.62-19.98-4.68-28.08-8.82-12.24-17.1-12.24-14.04 4.14-17.1 12.24-4.68 17.46-4.68 28.08 1.61 19.98 4.68 28.08z"/><path d="m318.42 58.47h-2.7c-.18-3.78-3.24-6.84-8.28-6.84-6.66 0-10.98 3.6-13.14 10.98s-3.24 16.2-3.24 26.46v20.16c.72 14.58-.54 13.68 13.68 14.76v2.7h-34.74v-2.7c11.16-1.08 10.26-.54 10.8-14.76v-47.88c-.36-14.04 0-13.68-10.8-14.76v-2.7h21.06v7.2c0 3.24-.36 8.82-1.26 16.56h.72c1.62-14.58 9.18-25.2 21.42-25.2 2.7 0 4.86.36 6.48 1.26z"/><path d="m358.86 126.69h-31.68v-2.7c11.16-1.08 10.26-.54 10.8-14.76v-47.88c-.36-14.04 0-13.68-10.8-14.76v-2.7h21.06v65.34c.36 14.22-.18 13.68 10.62 14.76zm-15.84-116.29c4.5 0 8.28 3.6 8.28 7.92 0 4.5-3.78 8.28-8.28 8.28s-8.1-3.78-8.1-8.28c0-4.32 3.6-7.92 8.1-7.92z"/><path d="m396.12 123.99v2.7h-4.86c-18.72 0-22.14-3.96-22.14-23.4v-56.7h-10.62v-2.7c12.78-.9 17.1-8.82 18.54-22.5h2.7v22.5h16.38v2.7h-16.38v61.38c0 12.42 3.78 16.02 14.58 16.02z"/><path d="m456.23 114.99c-5.58 8.64-15.12 13.14-25.92 13.14-10.08 0-17.82-3.96-23.4-11.88-5.4-8.1-8.1-18.36-8.1-31.14 0-26.1 11.52-42.66 30.96-42.66 18.54 0 27.9 12.96 27.9 38.7h-48.06c0 12.06 1.98 21.96 5.94 29.7 4.14 7.74 10.26 11.7 18.72 11.7 8.1 0 16.2-3.42 20.52-9.72zm-9.18-36.54c.18-22.14-4.68-33.3-17.82-33.3s-19.08 14.04-19.62 33.3z"/><path d="m487 126.69v-2.7c12.24-1.44 11.88-.54 12.24-13.5v-86.41c-.54-12.96 0-12.24-12.24-13.5v-2.7h43.56c31.68 0 44.28 27.9 44.28 58.69 0 32.04-13.68 60.12-45.18 60.12zm69.49-97.75c-4.5-12.24-13.32-18.36-26.46-18.36h-19.98v99.55c0 12.24 3.96 13.86 14.76 13.86h4.86c13.32 0 22.32-5.94 26.82-17.82 4.68-11.88 7.02-24.66 7.02-38.34 0-13.87-2.34-26.83-7.02-38.89z"/><path d="m646.12 126.69h-21.06v-3.42c0-2.52.18-6.48.36-12.06h-.54c-3.6 10.26-11.7 16.92-22.5 16.92-13.86 0-21.96-8.82-21.96-22.32 0-20.52 21.06-27.36 36.36-27.36h8.28v-4.68c0-18.9-3.96-28.62-16.74-28.62-10.62 0-17.64 8.64-18.9 21.42h-2.7v-17.47c4.5-3.6 14.22-6.66 22.14-6.66 21.42 0 26.47 12.42 26.47 34.92v31.86c.36 14.04-.18 13.68 10.8 14.76v2.71zm-21.07-45.54h-6.12c-7.56 0-14.04 1.8-19.62 5.22-5.4 3.42-8.1 9.72-8.1 18.54 0 10.8 5.22 17.64 14.58 17.64 6.66 0 11.52-3.06 14.58-9 3.06-6.12 4.68-12.96 4.68-20.52z"/><path d="m721.54 126.69h-21.06v-7.38c0-3.6.18-7.02.54-10.44h-.72c-1.26 4.86-3.96 9.18-7.92 13.32-3.96 3.96-9.18 5.94-15.84 5.94-12.78 0-22.32-8.82-22.32-25.56v-41.22c-.54-14.58.54-13.68-10.62-14.76v-2.7h20.88v55.62c0 14.76 5.22 22.14 15.48 22.14 7.74 0 12.96-3.42 16.02-10.08s4.5-14.76 4.5-24.12v-26.1c-.36-14.58.18-13.68-10.62-14.76v-2.7h20.88v65.34c.36 14.04-.18 13.68 10.8 14.76z"/><path d="m759.32 162.33c-19.98 0-33.84-8.46-33.84-24.12 0-7.92 5.22-14.94 13.14-18-5.94-3.42-9-8.64-9-15.48 0-7.2 4.5-12.78 10.98-16.38-4.86-5.04-7.2-11.7-7.2-19.8 0-15.66 10.26-26.1 26.1-26.1 3.24 0 6.48.54 9.54 1.44h20.34v2.7l-12.06 2.16c5.22 4.86 7.92 11.7 7.92 20.52 0 15.84-10.44 25.92-26.28 25.92-6.66 0-12.06-1.8-16.56-5.22-5.4 2.7-8.1 6.84-8.1 12.24 0 8.1 6.3 10.8 18.54 11.7l15.66 1.26c16.02 1.26 23.94 8.46 23.94 21.6 0 16.56-12.96 25.56-33.12 25.56zm10.62-37.26-15.48-.9c-5.22-.36-9.54-1.26-12.78-2.52-4.86 2.88-7.2 8.46-7.2 14.94 0 14.58 10.98 21.24 28.8 21.24 15.84 0 25.2-6.66 25.2-18.72 0-10.26-7.74-13.32-18.54-14.04zm-10.62-32.58c9.54 0 15.12-8.46 15.12-23.58 0-15.3-5.4-23.58-15.3-23.58s-14.94 8.64-14.94 23.58c0 15.12 5.58 23.58 15.12 23.58z"/><path d="m863 109.23c.54 14.58-.54 13.5 10.62 14.76v2.7h-20.88v-55.62c0-14.76-5.22-22.14-15.48-22.14-7.74 0-13.14 3.42-16.2 10.08-2.88 6.66-4.32 14.58-4.32 23.94v26.28c.36 14.22-.18 13.68 10.62 14.76v2.7h-31.69v-2.7c11.16-1.08 10.26-.54 10.8-14.76v-90.19c-.36-14.04 0-13.68-10.8-14.76v-2.7h21.06v43.92c0 6.12-.18 11.52-.54 16.2h.72c1.26-4.86 3.96-9.18 7.74-13.14 3.96-4.14 9.18-6.12 15.84-6.12 12.96 0 22.5 8.82 22.5 25.56v41.23z"/><path d="m909.43 123.99v2.7h-4.86c-18.72 0-22.14-3.96-22.14-23.4v-56.7h-10.63v-2.7c12.78-.9 17.1-8.82 18.54-22.5h2.7v22.5h16.38v2.7h-16.38v61.38c0 12.42 3.78 16.02 14.58 16.02z"/><path d="m967.93 114.99c-5.58 8.64-15.12 13.14-25.92 13.14-10.08 0-17.82-3.96-23.4-11.88-5.4-8.1-8.1-18.36-8.1-31.14 0-26.1 11.52-42.66 30.96-42.66 18.54 0 27.9 12.96 27.9 38.7h-48.07c0 12.06 1.98 21.96 5.94 29.7 4.14 7.74 10.26 11.7 18.72 11.7 8.1 0 16.2-3.42 20.52-9.72zm-9.18-36.54c.18-22.14-4.68-33.3-17.82-33.3s-19.08 14.04-19.62 33.3z"/><path d="m1023 58.47h-2.7c-.18-3.78-3.24-6.84-8.28-6.84-6.66 0-10.98 3.6-13.14 10.98s-3.24 16.2-3.24 26.46v20.16c.72 14.58-.54 13.68 13.68 14.76v2.7h-34.74v-2.7c11.16-1.08 10.26-.54 10.8-14.76v-47.88c-.36-14.04 0-13.68-10.8-14.76v-2.7h21.06v7.2c0 3.24-.36 8.82-1.26 16.56h.72c1.62-14.58 9.18-25.2 21.42-25.2 2.7 0 4.86.36 6.48 1.26z"/></g></svg>